<?xml version="1.0" encoding="UTF-8"?>
<svg id="Layer_1" xmlns="http://www.w3.org/2000/svg" xmlns:xlink="http://www.w3.org/1999/xlink" version="1.1" viewBox="0 0 500 211.8">
  <!-- Generator: Adobe Illustrator 29.2.1, SVG Export Plug-In . SVG Version: 2.1.0 Build 116)  -->
  <defs>
    <style>
      .st0 {
        fill: #000083;
      }
    </style>
  </defs>
  <g id="Logo_Artwork">
    <path class="st0" d="M138.5,165.6l15.1-100.3c.2-1.6,1.4-3,3-3.4l30.1-8.7c1.5-.4,3.1.4,3.5,1.9.1.4.1.8,0,1.2l-15.1,100.6c-.6,4.9,1.4,6.8,6,6.8,1.5,0,3.1-.2,4.6-.4,1.6-.3,3.2.8,3.5,2.5,0,.3,0,.6,0,1l-3.1,20.7c-.3,2-1.8,3.7-3.8,4.1-5.1,1.3-10.4,1.9-15.7,1.9-21,0-30.9-9.7-28.2-27.8ZM351.1,193.4c5.3,0,10.6-.7,15.7-1.9,2-.5,3.5-2.1,3.8-4.1l3.1-20.7c.2-1.7-.9-3.2-2.6-3.4-.3,0-.6,0-1,0-1.5.3-3,.4-4.6.4-4.7,0-6.6-1.9-6-6.8l15.1-100.6c.2-1.5-.8-3-2.4-3.2-.4,0-.8,0-1.2,0l-30.1,8.7c-1.6.5-2.8,1.8-3,3.4l-15.1,100.3c-2.7,18.1,7.2,27.8,28.2,27.8ZM311.7,163.2c-1.4.3-2.9.4-4.4.4-4.9,0-6.8-2.1-6-6.8l8.8-59.7c.2-1.7-.9-3.2-2.6-3.4-.1,0-.3,0-.4,0h-29.3c-1.5,0-2.8,1.1-3,2.6l-7.4,49.3c-1.6,11.1-9.1,17.7-19.8,17.7s-15.4-7-13.6-18.3l7.1-47.8c.2-1.7-.9-3.2-2.6-3.4-.1,0-.3,0-.4,0h-29.2c-1.5,0-2.8,1.1-3,2.6l-8.2,55.3c-3.7,24.9,10.3,41.8,35.6,41.8s25.7-4.9,33.8-12c3.5,7.6,12,12,25.6,12,5.4,0,10.7-.7,15.9-2,1.9-.4,3.3-1.9,3.5-3.8l3-21c.2-1.7-.9-3.2-2.6-3.4-.3,0-.7,0-1,0ZM496.4,163.2c-1.4.3-2.9.4-4.4.4-4.9,0-6.8-2.1-6-6.8l8.8-59.7c.2-1.7-.9-3.2-2.6-3.4-.1,0-.3,0-.4,0h-29.3c-1.5,0-2.8,1.1-3,2.6l-7.4,49.3c-1.6,11.1-9.1,17.7-19.8,17.7s-15.4-7-13.6-18.3l7.1-47.8c.2-1.7-.9-3.2-2.6-3.4-.1,0-.3,0-.4,0h-29.2c-1.5,0-2.8,1.1-3,2.6l-8.2,55.3c-3.7,24.9,10.3,41.8,35.6,41.8s25.7-4.9,33.8-12c3.5,7.6,12,12,25.6,12,5.7,0,11.4-.8,17-2.2,1.2-.3,2.2-1.3,2.3-2.5l3.2-22c.2-1.7-.9-3.2-2.6-3.4-.3,0-.7,0-1,0ZM57.1,162.7c-9.7-4.9-20.1-8.4-30.8-10.5-5.7-1-9.5-6.4-8.6-12.1l13.1-87.2c-4.4-.3-8.8-.3-13.2,0-.8,0-1.4.6-1.5,1.4L0,161c-.1.9.5,1.7,1.4,1.9,0,0,.2,0,.3,0,9.9-.2,55.3-.3,79.3,17.9-6-6.9-13.9-13-23.9-18ZM105,188.4s7-46.2,15.4-102.5c7.5-50.4-39.2-65-49-67.4-.9-.2-1.8.3-2,1.2,0,0,0,.1,0,.2l-10.5,70.2c-.2,1-.3,2.1-.3,3.1,0,12.1,10.6,14.4,15.9,14.8.9,0,1.6.9,1.5,1.8,0,.3,0,.5-.2.7-3.4,5.6-10.3,19.5-2,29.5,0,0,27.6,24.9,31.3,48.4ZM67.6,146.7c-.3-.3-.6-.6-.9-1-6.7-8.2-7.8-19.2-3.2-31.1-8.8-3.7-14-11.4-14-21.5,0-1.5.1-3,.4-4.4l8.2-54.3c-4.5-.8-9.1-1.2-13.7-1.3-.8,0-1.5.6-1.6,1.4l-16.1,107c-.1.9.5,1.7,1.3,1.9,8.5,1.6,48.9,10.6,66.6,40.9-5.1-15.3-20.7-31.9-27-37.6Z"/>
  </g>
</svg>